<?xml version="1.0" standalone="no"?>
<!DOCTYPE svg PUBLIC "-//W3C//DTD SVG 20010904//EN"
 "http://www.w3.org/TR/2001/REC-SVG-20010904/DTD/svg10.dtd">
<svg version="1.0" xmlns="http://www.w3.org/2000/svg"
 width="955.000000pt" height="955.000000pt" viewBox="0 0 955.000000 955.000000"
 preserveAspectRatio="xMidYMid meet">
<metadata>
Created by potrace 1.14, written by Peter Selinger 2001-2017
</metadata>
<g transform="translate(0.000000,955.000000) scale(0.100000,-0.100000)"
fill="#000000" stroke="none">
<path d="M2186 8884 c-522 -81 -990 -398 -1279 -864 -125 -203 -218 -473 -247
-720 -8 -68 -10 -795 -8 -2585 l3 -2490 27 -121 c85 -379 256 -686 530 -950
247 -239 530 -390 883 -472 110 -25 111 -25 686 -29 l577 -4 87 25 c48 14 227
53 398 86 714 140 787 156 787 180 0 26 -121 43 -515 75 -176 14 -351 30 -390
36 -104 15 -175 37 -175 54 0 34 -154 84 -400 129 -74 13 -277 46 -450 71
-173 26 -321 50 -329 54 -23 13 19 19 351 51 383 37 537 56 650 80 87 19 168
52 168 70 0 65 -393 115 -1240 160 -474 25 -598 39 -607 67 -5 14 67 37 171
53 42 7 76 15 76 17 0 2 -38 53 -84 111 -259 332 -439 661 -574 1053 -45 130
-127 428 -119 435 1 1 41 -20 87 -47 419 -247 883 -396 1374 -440 178 -16 541
-6 718 20 368 54 689 156 1013 321 629 319 1122 820 1435 1455 115 233 175
394 236 631 160 630 128 1280 -93 1893 -25 69 -62 163 -84 209 -21 47 -39 86
-39 88 0 5 159 -55 259 -98 784 -333 1424 -934 1806 -1697 200 -398 325 -839
365 -1281 13 -148 13 -493 0 -640 -64 -710 -333 -1377 -779 -1931 -50 -63 -66
-90 -58 -98 16 -16 -40 -36 -188 -64 -242 -47 -531 -83 -749 -92 -213 -10
-233 -17 -148 -53 145 -63 581 -142 977 -177 234 -21 293 -38 259 -76 -47 -52
-367 -115 -703 -139 -148 -11 -221 -27 -221 -50 0 -18 62 -49 170 -84 273 -88
721 -160 1077 -173 l173 -6 57 38 c336 222 610 603 728 1010 64 221 59 3 63
2745 2 1829 0 2520 -8 2590 -15 122 -69 330 -115 445 -210 521 -658 926 -1196
1080 -239 69 -60 65 -2815 64 -2063 -1 -2504 -3 -2578 -15z"/>
</g>
</svg>
